<svg width="512" height="512" viewBox="0 0 512 512" fill="none" xmlns="http://www.w3.org/2000/svg">
<circle cx="256" cy="256" r="256" fill="black"/>
<g filter="url(#filter0_d)">
<path d="M99.416 298.919H83.288V289.415H127.208V298.919H111.08V339.815H99.416V298.919ZM164.145 329.015H140.745L136.281 339.815H124.329L146.793 289.415H158.313L180.849 339.815H168.609L164.145 329.015ZM160.473 320.159L152.481 300.863L144.489 320.159H160.473ZM207.894 289.415C212.358 289.415 216.222 290.159 219.486 291.647C222.798 293.135 225.342 295.247 227.118 297.983C228.894 300.719 229.782 303.959 229.782 307.703C229.782 311.399 228.894 314.639 227.118 317.423C225.342 320.159 222.798 322.271 219.486 323.759C216.222 325.199 212.358 325.919 207.894 325.919H197.742V339.815H186.078V289.415H207.894ZM207.246 316.415C210.75 316.415 213.414 315.671 215.238 314.183C217.062 312.647 217.974 310.487 217.974 307.703C217.974 304.871 217.062 302.711 215.238 301.223C213.414 299.687 210.75 298.919 207.246 298.919H197.742V316.415H207.246ZM291.315 339.815L281.595 325.775H281.019H270.867V339.815H259.203V289.415H281.019C285.483 289.415 289.347 290.159 292.611 291.647C295.923 293.135 298.467 295.247 300.243 297.983C302.019 300.719 302.907 303.959 302.907 307.703C302.907 311.447 301.995 314.687 300.171 317.423C298.395 320.111 295.851 322.175 292.539 323.615L303.843 339.815H291.315ZM291.099 307.703C291.099 304.871 290.187 302.711 288.363 301.223C286.539 299.687 283.875 298.919 280.371 298.919H270.867V316.487H280.371C283.875 316.487 286.539 315.719 288.363 314.183C290.187 312.647 291.099 310.487 291.099 307.703ZM333.964 289.415C338.428 289.415 342.292 290.159 345.556 291.647C348.868 293.135 351.412 295.247 353.188 297.983C354.964 300.719 355.852 303.959 355.852 307.703C355.852 311.399 354.964 314.639 353.188 317.423C351.412 320.159 348.868 322.271 345.556 323.759C342.292 325.199 338.428 325.919 333.964 325.919H323.812V339.815H312.148V289.415H333.964ZM333.316 316.415C336.82 316.415 339.484 315.671 341.308 314.183C343.132 312.647 344.044 310.487 344.044 307.703C344.044 304.871 343.132 302.711 341.308 301.223C339.484 299.687 336.82 298.919 333.316 298.919H323.812V316.415H333.316ZM389.002 340.679C383.866 340.679 379.21 339.575 375.034 337.367C370.906 335.111 367.642 332.015 365.242 328.079C362.89 324.095 361.714 319.607 361.714 314.615C361.714 309.623 362.89 305.159 365.242 301.223C367.642 297.239 370.906 294.143 375.034 291.935C379.21 289.679 383.89 288.551 389.074 288.551C393.442 288.551 397.378 289.319 400.882 290.855C404.434 292.391 407.41 294.599 409.81 297.479L402.322 304.391C398.914 300.455 394.69 298.487 389.65 298.487C386.53 298.487 383.746 299.183 381.298 300.575C378.85 301.919 376.93 303.815 375.538 306.263C374.194 308.711 373.522 311.495 373.522 314.615C373.522 317.735 374.194 320.519 375.538 322.967C376.93 325.415 378.85 327.335 381.298 328.727C383.746 330.071 386.53 330.743 389.65 330.743C394.69 330.743 398.914 328.751 402.322 324.767L409.81 331.679C407.41 334.607 404.434 336.839 400.882 338.375C397.33 339.911 393.37 340.679 389.002 340.679Z" fill="white"/>
</g>
<path d="M260.971 161.143V220.874C260.971 223.562 258.789 225.744 256.102 225.744C253.414 225.744 251.232 223.562 251.232 220.874V161.143C251.232 158.455 253.414 156.274 256.102 156.274C258.789 156.274 260.971 158.455 260.971 161.143Z" fill="#425796"/>
<path d="M260.971 161.143V220.874C260.971 223.562 258.789 225.744 256.102 225.744V156.274C258.789 156.274 260.971 158.455 260.971 161.143Z" fill="#283758"/>
<path d="M226.688 217.652C211.591 202.556 211.589 178.119 226.688 163.02C228.59 161.118 231.673 161.118 233.574 163.02C235.476 164.921 235.476 168.005 233.574 169.906C222.284 181.197 222.282 199.473 233.574 210.766C235.476 212.667 235.476 215.75 233.574 217.652C231.673 219.554 228.59 219.554 226.688 217.652Z" fill="#DD5958"/>
<path d="M211.997 232.846C188.835 209.683 188.835 171.995 211.997 148.832C213.899 146.931 216.982 146.931 218.884 148.832C220.785 150.734 220.785 153.817 218.884 155.719C199.518 175.084 199.518 206.594 218.884 225.96C220.785 227.861 220.785 230.945 218.884 232.846C216.983 234.747 213.899 234.748 211.997 232.846V232.846Z" fill="#FFE278"/>
<path d="M197.306 247.154C164.863 214.711 164.933 166.131 197.306 133.758C199.208 131.857 202.291 131.857 204.193 133.758C206.094 135.66 206.094 138.743 204.193 140.645C175.795 169.042 175.795 211.87 204.193 240.268C206.094 242.169 206.094 245.252 204.193 247.154C202.292 249.055 199.208 249.056 197.306 247.154Z" fill="#94DFDA"/>
<path d="M278.628 217.652C276.727 215.75 276.727 212.667 278.628 210.765C289.893 199.5 289.893 181.171 278.628 169.906C276.727 168.005 276.727 164.922 278.628 163.02C280.53 161.119 283.613 161.119 285.515 163.02C300.577 178.082 300.577 202.59 285.515 217.652C283.613 219.554 280.53 219.553 278.628 217.652V217.652Z" fill="#D8225B"/>
<path d="M293.319 232.846C291.418 230.945 291.418 227.862 293.319 225.96C312.685 206.594 312.685 175.084 293.319 155.719C291.418 153.817 291.418 150.734 293.319 148.832C295.221 146.931 298.304 146.931 300.206 148.832C323.368 171.995 323.368 209.683 300.206 232.846C298.304 234.748 295.221 234.748 293.319 232.846V232.846Z" fill="#FFB454"/>
<path d="M308.01 247.154C306.109 245.253 306.109 242.169 308.01 240.268C336.408 211.87 336.408 169.042 308.01 140.645C306.109 138.743 306.109 135.66 308.01 133.758C309.912 131.857 312.995 131.857 314.897 133.758C347.34 166.201 347.27 214.781 314.897 247.154C312.995 249.056 309.912 249.055 308.01 247.154V247.154Z" fill="#61A7C5"/>
<path d="M256.102 208.83C265.962 208.83 273.956 200.836 273.956 190.976C273.956 181.115 265.962 173.121 256.102 173.121C246.241 173.121 238.247 181.115 238.247 190.976C238.247 200.836 246.241 208.83 256.102 208.83Z" fill="#EEF4FF"/>
<path d="M273.956 190.976C273.956 200.821 265.947 208.83 256.102 208.83V173.121C265.947 173.121 273.956 181.13 273.956 190.976Z" fill="#D9E6FC"/>
<defs>
<filter id="filter0_d" x="80.2881" y="288.551" width="338.522" height="66.128" filterUnits="userSpaceOnUse" color-interpolation-filters="sRGB">
<feFlood flood-opacity="0" result="BackgroundImageFix"/>
<feColorMatrix in="SourceAlpha" type="matrix" values="0 0 0 0 0 0 0 0 0 0 0 0 0 0 0 0 0 0 127 0"/>
<feOffset dx="3" dy="8"/>
<feGaussianBlur stdDeviation="3"/>
<feColorMatrix type="matrix" values="0 0 0 0 1 0 0 0 0 1 0 0 0 0 1 0 0 0 0.26 0"/>
<feBlend mode="normal" in2="BackgroundImageFix" result="effect1_dropShadow"/>
<feBlend mode="normal" in="SourceGraphic" in2="effect1_dropShadow" result="shape"/>
</filter>
</defs>
</svg>
